<svg xmlns="http://www.w3.org/2000/svg" xmlns:xlink="http://www.w3.org/1999/xlink" version="1.1" x="0px" y="0px" viewBox="0 0 1000 1250" enable-background="new 0 0 1000 1000" xml:space="preserve"><path d="M961.4,440.8L644.2,252.8c0,0-50-34.4-83.1-8c-33,23.2-34.6,78.7-25.5,110.1c9.1,32,43.1,72.9,49.2,31.4  c6.1-42.1-12.6-75.6,18.5-65.6c25.7,7.6,130.1,81,171.4,120.1H563.6h-52.3H225.3c41.4-39.1,145.7-112.5,171.4-120.1  c31.2-10,12.4,23.5,18.5,65.6c6.1,41.5,40.1,0.6,49.2-31.4c9.1-31.5,7.5-86.9-25.5-110.1c-33.1-26.4-83.1,8-83.1,8L38.6,440.8h-2.3  l0,1.3l-0.2,0.1v213.6c0,0.7,0,1.4,0.1,2.1l-0.1,77.9c0,16.1,13,29.1,29.1,29.1h288.5c0,0,42.7,3.6,57.8-23.6  c12.5-22.6,50.5-93.8,74.5-101.2c3.6-1.1,7.5-1.6,11.5-2c0.8-0.1,1.5-0.1,2.3-0.1s1.5,0.1,2.3,0.1c4,0.4,7.9,0.9,11.5,2  c24,7.4,62,78.6,74.5,101.2c15.1,27.3,57.8,23.6,57.8,23.6s210.3,0.1,288.8,0c16.1,0,29.1-13,29.1-29.1v-80.2V442.3v-1.5H961.4z   M396.5,544.1l-36.3,124.3c-4,13.7-16.9,23.2-31.6,23.2h-188c-18.1,0-32.8-14.3-32.8-31.9V535.4c0-17.6,14.7-31.9,32.8-31.9h224.3  C386.7,503.5,402.4,523.7,396.5,544.1z M891.9,659.7c0,17.6-14.7,31.9-32.8,31.9H671c-14.7,0-27.6-9.5-31.6-23.2l-36.3-124.3  c-5.9-20.4,9.8-40.6,31.6-40.6h224.3c18.1,0,32.8,14.3,32.8,31.9V659.7z"/><text x="0" y="1015" fill="#000000" font-size="5px" font-weight="bold" font-family="'Helvetica Neue', Helvetica, Arial-Unicode, Arial, Sans-serif">Created by Alvaro Cabrera</text><text x="0" y="1020" fill="#000000" font-size="5px" font-weight="bold" font-family="'Helvetica Neue', Helvetica, Arial-Unicode, Arial, Sans-serif">from the Noun Project</text></svg>